# xmcd CD database file
#
# Track frame offsets:
#	150
#	13864
#	31672
#	49365
#	68481
#	93946
#	118234
#	134269
#	146329
#	184165
#	201771
#	227234
#	246705
#	264413
#	288025
#
# Disc length: 4173 seconds
#
# Revision: 0
# Processed by: cddbd v1.5.2PL0 Copyright (c) Steve Scherf et al.
# Submitted via: CDex 1.70beta3
#
DISCID=d8104b0f
DTITLE=Kisaku Nasu - Jazz For More: El Drado
DYEAR=2010
DGENRE=Jazz
TTITLE0=Rare Groove Club
TTITLE1=Turn It Up
TTITLE2=Louisiana Boppin
TTITLE3=My Favourite Things
TTITLE4=Recado Bossa Nova
TTITLE5=Day Dreaming
TTITLE6=Move On Up
TTITLE7=Time Is Love
TTITLE8=Optimism
TTITLE9=Tighten Up
TTITLE10=Spirit Of Love (Mano Arriba Remix)
TTITLE11=24th Of May
TTITLE12=From J To Z
TTITLE13=Trans Europa Express
TTITLE14=Summertime
EXTD=YEAR: 2010
EXTT0=
EXTT1=
EXTT2=
EXTT3=
EXTT4=
EXTT5=
EXTT6=
EXTT7=
EXTT8=
EXTT9=
EXTT10=
EXTT11=
EXTT12=
EXTT13=
EXTT14=
PLAYORDER=
